<svg width="1557" height="1056" viewBox="0 0 1557 1056" fill="none" xmlns="http://www.w3.org/2000/svg">
<path opacity="0.31" d="M1556.08 2.17H0.0996094V1055.13H1556.08V2.17Z" fill="url(#paint0_radial_590_35092)"/>
<path d="M1310.39 23.74V10.68L1269.99 2.06999L1269.84 4.08999L1303.53 11.21V25.92V30.2V44.91L1278.15 50.27L1095.47 50.23L1070.3 44.91V30.2V25.92V11.21L1103.98 4.08999L1104.18 2.06999L1063.43 10.68V23.74L1059.07 24.66V25.92V30.2V31.46L1063.43 32.38V45.44L1094.94 52.1H1278.88L1310.39 45.44V32.38L1314.75 31.46V30.2V25.92V24.66L1310.39 23.74Z" fill="#00FFFF"/>
<path d="M1112.75 9.95999L1123.25 0.869995H1118.36L1107.86 9.95999H1112.75Z" fill="#00E7F4"/>
<path d="M1124.53 9.95999L1135.03 0.869995H1130.13L1119.64 9.95999H1124.53Z" fill="#00E7F4"/>
<path d="M1136.3 9.95999L1146.8 0.869995H1141.91L1131.41 9.95999H1136.3Z" fill="#00E7F4"/>
<path d="M1148.07 9.95999L1158.57 0.869995H1153.68L1143.18 9.95999H1148.07Z" fill="#00E7F4"/>
<path d="M1228.62 9.99L1239.12 0.889999H1234.23L1223.73 9.99H1228.62Z" fill="#00E7F4"/>
<path d="M1217.22 9.99L1227.72 0.889999H1222.83L1212.33 9.99H1217.22Z" fill="#00E7F4"/>
<path d="M1240.4 9.99L1250.89 0.889999H1246L1235.5 9.99H1240.4Z" fill="#00E7F4"/>
<path d="M1252.17 9.99L1262.67 0.889999H1257.78L1247.28 9.99H1252.17Z" fill="#00E7F4"/>
<path d="M1170.75 9.99L1181.25 0.889999H1176.36L1165.86 9.99H1170.75Z" fill="#00E7F4"/>
<path d="M1159.35 9.99L1169.85 0.889999H1164.96L1154.46 9.99H1159.35Z" fill="#00E7F4"/>
<path d="M1182.52 9.99L1193.02 0.889999H1188.13L1177.63 9.99H1182.52Z" fill="#00E7F4"/>
<path d="M1194.29 9.99L1204.79 0.889999H1199.9L1189.4 9.99H1194.29Z" fill="#00E7F4"/>
<path d="M1206.07 9.99L1216.57 0.889999H1211.68L1201.18 9.99H1206.07Z" fill="#00E7F4"/>
<path d="M1081.39 36.93C1081.66 36.89 1081.87 36.76 1082.03 36.53C1082.19 36.31 1082.34 36.05 1082.48 35.77L1088.25 23.91C1088.4 23.65 1088.53 23.4 1088.64 23.18C1088.75 22.96 1088.81 22.76 1088.81 22.6C1088.81 22.4 1088.74 22.25 1088.59 22.17C1088.44 22.09 1088.29 22.03 1088.12 21.99V21.44H1093.39V21.99C1093.24 22.03 1093.1 22.09 1092.95 22.16C1092.8 22.23 1092.73 22.38 1092.73 22.6C1092.73 22.76 1092.77 22.93 1092.84 23.09C1092.91 23.25 1093.02 23.47 1093.17 23.73L1099.66 36.14C1099.76 36.36 1099.9 36.53 1100.08 36.63C1100.26 36.73 1100.46 36.83 1100.69 36.93V37.48H1095.2V36.93C1095.28 36.93 1095.39 36.9 1095.51 36.84C1095.63 36.78 1095.7 36.69 1095.7 36.57C1095.7 36.37 1095.62 36.1 1095.45 35.78L1094.27 33.52H1086.66L1085.54 35.69C1085.33 36.12 1085.23 36.42 1085.23 36.6C1085.23 36.82 1085.43 36.94 1085.82 36.94V37.49H1081.39V36.93ZM1093.15 31.25L1090.53 25.58L1087.6 31.25H1093.15Z" fill="#00E7F4"/>
<path d="M1109.37 24.06V24.61C1108.89 24.61 1108.65 24.76 1108.65 25.07V35.23H1117.07C1117.32 35.23 1117.53 35.17 1117.69 35.06C1117.86 34.95 1117.94 34.79 1117.94 34.59H1118.5V37.79H1117.94C1117.94 37.63 1117.86 37.54 1117.69 37.52C1117.52 37.5 1117.32 37.49 1117.07 37.49H1104.85V36.94C1105.39 36.94 1105.66 36.79 1105.66 36.48V25.06C1105.66 24.76 1105.39 24.6 1104.85 24.6V24.05H1109.37V24.06Z" fill="#00E7F4"/>
<path d="M1123.55 36.93C1123.88 36.93 1124.11 36.89 1124.24 36.82C1124.36 36.75 1124.43 36.63 1124.43 36.47V25.06C1124.43 24.9 1124.37 24.78 1124.24 24.71C1124.12 24.64 1123.89 24.6 1123.55 24.6V24.05H1128.29V24.6C1127.71 24.6 1127.42 24.75 1127.42 25.06V36.47C1127.42 36.77 1127.71 36.93 1128.29 36.93V37.48H1123.55V36.93Z" fill="#00E7F4"/>
<path d="M1146.66 26.89C1146.66 26.5 1146.34 26.31 1145.69 26.31H1138.08V29.36H1142.88C1143.23 29.36 1143.49 29.34 1143.66 29.28C1143.83 29.23 1143.91 29.09 1143.91 28.87H1144.47V32.1H1143.85C1143.91 31.88 1143.83 31.74 1143.6 31.69C1143.37 31.64 1143.05 31.61 1142.63 31.61H1138.08V35.21H1146.06C1146.31 35.21 1146.52 35.15 1146.68 35.04C1146.85 34.93 1146.93 34.78 1146.93 34.6H1147.49V37.8H1146.93C1146.93 37.62 1146.85 37.51 1146.68 37.5C1146.51 37.48 1146.31 37.47 1146.06 37.47H1134.62V36.92C1134.72 36.92 1134.83 36.88 1134.93 36.81C1135.03 36.74 1135.09 36.62 1135.09 36.46V25.06C1135.09 24.9 1135.04 24.78 1134.93 24.71C1134.83 24.64 1134.72 24.6 1134.62 24.6V24.05H1145.69C1146.33 24.05 1146.66 23.87 1146.66 23.5H1147.22V26.89H1146.66Z" fill="#00E7F4"/>
<path d="M1152.87 36.93C1153.24 36.93 1153.43 36.78 1153.43 36.47V25.06C1153.43 24.76 1153.24 24.6 1152.87 24.6V24.05H1157.45V24.6C1157.3 24.62 1157.23 24.67 1157.23 24.75C1157.23 24.85 1157.46 25.13 1157.92 25.57L1165.4 33.32V25.05C1165.4 24.75 1165.19 24.59 1164.78 24.59V24.04H1168.58V24.59C1168.21 24.59 1168.02 24.74 1168.02 25.05V36.46C1168.02 36.76 1168.21 36.92 1168.58 36.92V37.47H1164.53V36.92C1164.68 36.92 1164.75 36.87 1164.75 36.77C1164.75 36.69 1164.65 36.55 1164.45 36.34C1164.25 36.14 1164.03 35.9 1163.78 35.64L1156.05 27.59V36.46C1156.05 36.76 1156.27 36.92 1156.71 36.92V37.47H1152.87V36.93Z" fill="#00E7F4"/>
<path d="M1172.73 36.93C1173 36.89 1173.21 36.76 1173.37 36.53C1173.53 36.31 1173.68 36.05 1173.82 35.77L1179.59 23.91C1179.74 23.65 1179.87 23.4 1179.98 23.18C1180.09 22.96 1180.15 22.76 1180.15 22.6C1180.15 22.4 1180.08 22.25 1179.93 22.17C1179.78 22.09 1179.63 22.03 1179.46 21.99V21.44H1184.73V21.99C1184.58 22.03 1184.44 22.09 1184.29 22.16C1184.14 22.23 1184.07 22.38 1184.07 22.6C1184.07 22.76 1184.11 22.93 1184.18 23.09C1184.25 23.25 1184.36 23.47 1184.51 23.73L1191 36.14C1191.1 36.36 1191.24 36.53 1191.42 36.63C1191.6 36.73 1191.8 36.83 1192.03 36.93V37.48H1186.54V36.93C1186.62 36.93 1186.73 36.9 1186.85 36.84C1186.97 36.78 1187.04 36.69 1187.04 36.57C1187.04 36.37 1186.96 36.1 1186.79 35.78L1185.61 33.52H1178L1176.88 35.69C1176.67 36.12 1176.57 36.42 1176.57 36.6C1176.57 36.82 1176.77 36.94 1177.16 36.94V37.49H1172.73V36.93ZM1184.49 31.25L1181.87 25.58L1178.94 31.25H1184.49Z" fill="#00E7F4"/>
<path d="M1196.62 36.93C1196.95 36.93 1197.18 36.89 1197.31 36.82C1197.43 36.75 1197.5 36.63 1197.5 36.47V25.06C1197.5 24.9 1197.44 24.78 1197.31 24.71C1197.19 24.64 1196.96 24.6 1196.62 24.6V24.05H1201.36V24.6C1200.78 24.6 1200.49 24.75 1200.49 25.06V36.47C1200.49 36.77 1200.78 36.93 1201.36 36.93V37.48H1196.62V36.93Z" fill="#00E7F4"/>
<path d="M1216.17 24.06C1218.02 24.06 1219.46 24.36 1220.5 24.96C1221.54 25.56 1222.06 26.58 1222.06 28.02C1222.06 28.57 1221.96 29.06 1221.75 29.48C1221.54 29.91 1221.27 30.28 1220.92 30.59C1220.58 30.91 1220.2 31.16 1219.78 31.35C1219.36 31.54 1218.94 31.69 1218.5 31.79L1221.56 36.15C1221.73 36.37 1221.91 36.54 1222.11 36.65C1222.31 36.76 1222.52 36.85 1222.75 36.91V37.46H1217.98V36.91C1218.25 36.91 1218.39 36.82 1218.39 36.64C1218.39 36.44 1218.23 36.12 1217.92 35.7L1215.46 32.1H1211.13V36.46C1211.13 36.62 1211.2 36.74 1211.33 36.81C1211.46 36.88 1211.6 36.92 1211.72 36.92V37.47H1207.57V36.92C1207.94 36.92 1208.13 36.77 1208.13 36.46V25.06C1208.13 24.76 1207.94 24.6 1207.57 24.6V24.05H1216.17V24.06ZM1216.11 29.85C1218.15 29.85 1219.17 29.22 1219.17 27.96C1219.17 27.45 1218.93 27.05 1218.44 26.76C1217.95 26.47 1217.18 26.32 1216.12 26.32H1211.19V29.86H1216.11V29.85Z" fill="#00E7F4"/>
<path d="M1230.92 21.98C1230.61 21.98 1230.45 22.17 1230.45 22.56C1230.45 22.66 1230.47 22.78 1230.5 22.93C1230.53 23.07 1230.61 23.31 1230.73 23.63L1234.07 32.11H1234.13L1237.44 23.51C1237.54 23.25 1237.61 23.05 1237.64 22.92C1237.67 22.79 1237.69 22.67 1237.69 22.57C1237.69 22.18 1237.55 21.99 1237.28 21.99V21.44H1242.61V21.99C1242.46 21.99 1242.36 22.04 1242.3 22.14C1242.24 22.24 1242.21 22.35 1242.21 22.48C1242.21 22.68 1242.31 23.03 1242.52 23.52L1245.86 32.12H1245.92L1249.29 23.34C1249.44 23.04 1249.51 22.76 1249.51 22.52C1249.51 22.4 1249.46 22.28 1249.35 22.17C1249.25 22.06 1249.12 22 1248.98 22V21.45H1253.59V22C1253.36 22 1253.19 22.12 1253.08 22.37C1252.97 22.61 1252.84 22.92 1252.69 23.28L1248.2 34.93C1248.08 35.26 1247.97 35.54 1247.87 35.78C1247.78 36.02 1247.73 36.23 1247.73 36.39C1247.73 36.53 1247.78 36.66 1247.89 36.77C1247.99 36.88 1248.14 36.94 1248.33 36.94V37.49H1243.4V36.94C1243.52 36.9 1243.65 36.84 1243.79 36.76C1243.92 36.68 1243.99 36.57 1243.99 36.42C1243.99 36.26 1243.95 36.07 1243.88 35.87C1243.81 35.67 1243.69 35.38 1243.52 35.02L1239.93 26.02H1239.87L1236.47 34.83C1236.16 35.62 1236 36.12 1236 36.32C1236 36.65 1236.13 36.85 1236.41 36.93V37.48H1231.58V36.93C1231.7 36.93 1231.83 36.9 1231.95 36.84C1232.07 36.78 1232.14 36.68 1232.14 36.54C1232.14 36.38 1232.1 36.2 1232.03 36.02C1231.96 35.84 1231.88 35.64 1231.8 35.44L1226.81 22.84C1226.73 22.62 1226.64 22.43 1226.54 22.28C1226.45 22.13 1226.3 22.03 1226.09 21.99V21.44H1230.92V21.98Z" fill="#00E7F4"/>
<path d="M1255.96 36.93C1256.21 36.89 1256.41 36.77 1256.57 36.58C1256.73 36.39 1256.85 36.21 1256.93 36.05L1261.58 26.14C1261.7 25.86 1261.8 25.63 1261.88 25.45C1261.95 25.28 1261.99 25.11 1261.99 24.95C1261.99 24.83 1261.96 24.75 1261.91 24.72C1261.86 24.69 1261.8 24.65 1261.74 24.61V24.06H1266.45V24.61C1266.39 24.65 1266.32 24.68 1266.25 24.7C1266.18 24.72 1266.14 24.8 1266.14 24.94C1266.14 25.06 1266.19 25.21 1266.28 25.38C1266.37 25.55 1266.47 25.75 1266.58 25.97L1271.63 36.34C1271.73 36.52 1271.85 36.66 1271.97 36.74C1272.09 36.82 1272.23 36.88 1272.38 36.92V37.47H1267.95V37.01C1268.05 37.01 1268.16 36.98 1268.28 36.92C1268.39 36.86 1268.45 36.75 1268.45 36.58C1268.45 36.46 1268.43 36.35 1268.39 36.24C1268.35 36.14 1268.3 36.01 1268.23 35.84L1267.39 34.1H1260.72L1259.85 35.75C1259.77 35.91 1259.7 36.06 1259.65 36.19C1259.6 36.32 1259.57 36.44 1259.57 36.54C1259.57 36.7 1259.62 36.8 1259.73 36.84C1259.83 36.88 1259.98 36.9 1260.17 36.9V37.45H1255.99V36.93H1255.96ZM1266.38 31.86L1263.85 26.74L1261.64 31.86H1266.38Z" fill="#00E7F4"/>
<path d="M1275.64 25.12C1275.49 24.94 1275.32 24.81 1275.11 24.72C1274.9 24.64 1274.71 24.6 1274.52 24.6V24.05H1279.67V24.6C1279.57 24.6 1279.45 24.64 1279.33 24.71C1279.21 24.78 1279.14 24.88 1279.14 25C1279.14 25.12 1279.18 25.23 1279.26 25.34C1279.34 25.44 1279.44 25.56 1279.54 25.71L1282.69 29.74L1285.47 25.96C1285.66 25.7 1285.8 25.5 1285.89 25.37C1285.98 25.24 1286.03 25.11 1286.03 24.99C1286.03 24.83 1285.98 24.73 1285.87 24.69C1285.77 24.65 1285.66 24.63 1285.56 24.63V24.08H1290.33V24.63C1290.08 24.63 1289.8 24.77 1289.5 25.04C1289.2 25.31 1288.93 25.59 1288.71 25.88L1283.94 31.92V36.49C1283.94 36.79 1284.14 36.95 1284.53 36.95V37.5H1280.38V36.95C1280.75 36.95 1280.94 36.8 1280.94 36.49V31.79L1275.64 25.12Z" fill="#00E7F4"/>
<path d="M90.3604 963.88L90.5804 151.72L90.3604 75.84H1478.79V963.88L177.28 963.55L90.3604 963.88ZM1474.02 80.58L177.65 80.16L94.8404 80.59V959.32H1474.01V80.58H1474.02Z" fill="url(#paint1_radial_590_35092)"/>
<path d="M1537.29 396.89L1497.53 372.28L1497.91 58.97L1050.33 58.83L1006.58 25.39L455.8 24.48L416.07 58.83L74.8201 58.97L74.73 238.64L28.5201 274.26V275.19L27.29 713.27L74.73 746.97L74.8201 980.16L163.13 979.83H402.81L490.38 1039.5L848.87 1038.73L941.77 979.83L1497.9 980.16L1497.75 901.93L1497.73 684.85L1536.88 665.75L1537.29 396.89ZM1490.96 973.98L882.4 974.39L810.37 1020.47L690.16 1020.24L679.93 1025.62L519.1 1025.53L437.67 974.34H168.23L81.1401 973.97L80.8201 745.26L32.93 711.3L34.15 276.12L80.8201 240.29L81.1401 65.82L456.92 65.35L501.4 29.5H1004.43L1037.54 55.03L1050.44 64.98L1490.96 65.81V973.98Z" fill="#00E7F4"/>
<path d="M44.0703 664.54L80.8203 698.03L80.7403 730.35L44.0703 700.38V664.54Z" fill="#00E7F4"/>
<path d="M44.4004 577.27L80.8004 609.77V645.27L44.4004 612.05V577.27Z" fill="#00E7F4"/>
<path d="M44.4004 532.59L80.8004 566.04V600.1L44.4004 566.88V532.59Z" fill="#00E7F4"/>
<path d="M44.4004 489.9L80.8004 522.88V556.21L44.4004 523V489.9Z" fill="#00E7F4"/>
<path d="M44.4004 446.01L80.8004 478.74V511.59C68.6704 500.52 56.5304 489.45 44.4004 478.37V446.01Z" fill="#00E7F4"/>
<path d="M44.4004 402.36L80.8004 435.34V468.43L44.4004 435.21V402.36Z" fill="#00E7F4"/>
<path d="M44.4805 359.6L80.8805 392.09V423.26L44.4805 390.04V359.6Z" fill="#00E7F4"/>
<path d="M44.4004 316.45L80.8004 349.91V381.08C68.6704 370.01 56.5304 358.94 44.4004 347.86V316.45Z" fill="#00E7F4"/>
<path d="M44.4004 282.2L80.8004 251.17V336.85C68.6704 325.78 56.5304 314.71 44.4004 303.64V282.2Z" fill="#00E7F4"/>
<path d="M44.3203 652.49V620.84L80.7203 654.54V685.71L73.6903 679.29C63.9003 670.35 54.1103 661.42 44.3203 652.49Z" fill="#00E7F4"/>
<path d="M551.27 37.89L512.19 65.3L474.49 65.24L509.45 37.89H551.27Z" fill="#00E7F4"/>
<path d="M653.08 38.13L615.17 65.29H573.76L612.51 38.13H653.08Z" fill="#00E7F4"/>
<path d="M705.22 38.13L666.19 65.29H626.45L665.21 38.13H705.22Z" fill="#00E7F4"/>
<path d="M755.02 38.13L716.55 65.29H677.66L716.41 38.13H755.02Z" fill="#00E7F4"/>
<path d="M806.22 38.13L768.03 65.28H729.7C742.62 56.23 755.53 47.18 768.45 38.13H806.22Z" fill="#00E7F4"/>
<path d="M857.15 38.13L818.68 65.29H780.07L818.82 38.13H857.15Z" fill="#00E7F4"/>
<path d="M907.041 38.19L869.13 65.35H832.771L871.521 38.19H907.041Z" fill="#00E7F4"/>
<path d="M957.39 38.13L918.36 65.28H882C894.92 56.23 907.84 47.18 920.75 38.13H957.39Z" fill="#00E7F4"/>
<path d="M997.34 38.13L1033.54 65.28H933.57C946.49 56.23 959.4 47.18 972.32 38.13H997.34Z" fill="#00E7F4"/>
<path d="M565.33 38.07H602.25L562.94 65.22H526.58L534.06 59.98C544.49 52.68 554.91 45.38 565.33 38.07Z" fill="#00E7F4"/>
<path d="M464.28 974.34L569.22 974.41L520.27 1006.99L464.28 974.34Z" fill="#00E7F4"/>
<path d="M532.96 1010.47C551.19 998.45 569.43 986.43 587.66 974.42H640.97L587.06 1010.47H532.96Z" fill="#00E7F4"/>
<path d="M603.51 1010.47L658.21 974.41H712.31L658.01 1010.47H603.51Z" fill="#00E7F4"/>
<path d="M678.03 1010.47L732.73 974.41H782.87L729.36 1010.47H678.03Z" fill="#00E7F4"/>
<path d="M748.59 1010.47C766.83 998.45 785.06 986.43 803.29 974.42H855.01L799.91 1010.47H748.59Z" fill="#00E7F4"/>
<defs>
<radialGradient id="paint0_radial_590_35092" cx="0" cy="0" r="1" gradientUnits="userSpaceOnUse" gradientTransform="translate(778.094 528.646) scale(664.247)">
<stop stop-color="white"/>
<stop offset="1" stop-color="#B0C5F1"/>
</radialGradient>
<radialGradient id="paint1_radial_590_35092" cx="0" cy="0" r="1" gradientUnits="userSpaceOnUse" gradientTransform="translate(784.589 519.872) rotate(180) scale(582.154 584.055)">
<stop offset="0.2258" stop-color="#5000A9" stop-opacity="0"/>
<stop offset="0.3258" stop-color="#4F04AA" stop-opacity="0.1303"/>
<stop offset="0.4268" stop-color="#4A10AE" stop-opacity="0.262"/>
<stop offset="0.5284" stop-color="#4324B5" stop-opacity="0.3945"/>
<stop offset="0.6305" stop-color="#3A41BE" stop-opacity="0.5275"/>
<stop offset="0.7328" stop-color="#2D66CA" stop-opacity="0.6609"/>
<stop offset="0.8355" stop-color="#1D92D9" stop-opacity="0.7947"/>
<stop offset="0.9365" stop-color="#0BC6E9" stop-opacity="0.9263"/>
<stop offset="0.993" stop-color="#00E7F4"/>
</radialGradient>
</defs>
</svg>
