<svg width="16" height="16" viewBox="0 0 16 16" fill="none" xmlns="http://www.w3.org/2000/svg">
<path d="M2.27446 8C2.27446 10.5781 4.37192 12.6756 6.95005 12.6756C7.85867 12.6771 8.74786 12.4125 9.50795 11.9147L10.7544 13.8175C9.7059 14.503 8.49161 14.8923 7.24 14.9443C5.98838 14.9964 4.74597 14.7092 3.64418 14.1131C2.54238 13.517 1.62216 12.6343 0.980848 11.5582C0.339537 10.4821 0.000976563 9.2527 0.000976562 8C0.000976562 6.7473 0.339537 5.51789 0.980848 4.4418C1.62216 3.36571 2.54238 2.48295 3.64418 1.88689C4.74597 1.29083 5.98838 1.00362 7.24 1.05565C8.49161 1.10768 9.7059 1.49701 10.7544 2.18247L9.50795 4.08531C8.74786 3.58746 7.85867 3.32295 6.95005 3.3244C4.37192 3.3244 2.27446 5.42187 2.27446 8ZM10.717 5.93437L11.6454 6.8625H7.12783V9.1375H11.6454L10.717 10.0656L12.3254 11.6741L15.9997 8L12.3254 4.32572L10.717 5.93437Z" fill="#C092FF"/>
</svg>
