<svg width="24" height="24" viewBox="0 0 24 24" fill="none" xmlns="http://www.w3.org/2000/svg">
<path d="M12 24C18.6274 24 24 18.6274 24 12C24 5.37258 18.6274 0 12 0C5.37258 0 0 5.37258 0 12C0 18.6274 5.37258 24 12 24Z" fill="#C092FF"/>
<path d="M7.01011 15.7474C7.04011 15.8667 7.78878 18.6667 12.0001 18.6667C16.2121 18.6667 16.9601 15.8667 16.9901 15.7474C17.0268 15.6027 16.9614 15.4527 16.8321 15.378C16.7021 15.304 16.5394 15.326 16.4321 15.4294C16.4194 15.442 15.1294 16.6667 12.0001 16.6667C8.87078 16.6667 7.58011 15.442 7.56811 15.43C7.50411 15.3667 7.41878 15.3334 7.33344 15.3334C7.27744 15.3334 7.22078 15.3474 7.16944 15.376C7.03878 15.4507 6.97344 15.602 7.01011 15.7474Z" fill="#2D0450"/>
<path d="M8.00065 11.3333C8.92113 11.3333 9.66732 10.2886 9.66732 8.99996C9.66732 7.71129 8.92113 6.66663 8.00065 6.66663C7.08018 6.66663 6.33398 7.71129 6.33398 8.99996C6.33398 10.2886 7.08018 11.3333 8.00065 11.3333Z" fill="#2D0450"/>
<path d="M16.0007 11.3333C16.9211 11.3333 17.6673 10.2886 17.6673 8.99996C17.6673 7.71129 16.9211 6.66663 16.0007 6.66663C15.0802 6.66663 14.334 7.71129 14.334 8.99996C14.334 10.2886 15.0802 11.3333 16.0007 11.3333Z" fill="#2D0450"/>
</svg>
